<svg xmlns="http://www.w3.org/2000/svg" width="3296" height="122.667" viewBox="0 0 2472 92"><path d="M310.5 30.5c-.5.3-6.4.9-13 1.4-6.6.6-14 1.5-16.5 2-2.6.6-20.3 1-41 1.1-35.3 0-54.7 1.2-67.7 4.1-9.3 2-29.4 2.2-43.7.4-12.5-1.6-16.1-1.6-36.5-.5-12.4.7-30.9 1.3-41 1.4-13.5.1-18.6.5-18.9 1.4-.2.6.7 1.6 2.1 2.1 3.1 1.2 29.4.5 41.7-1.1 18.4-2.4 65.2-.9 73.8 2.3 1.6.6 7.1.2 16-1.1 31.3-4.4 38.5-4.9 71.9-4.6 17.7.2 33.6.8 35.5 1.4 1.8.6 9.6 1.3 17.3 1.7s15.2.8 16.8 1c1.5.1 3.7.3 4.9.4 1.4.1 1.8.5 1.3 1-1 1-9.3 1.7-62 5.2-30.8 2.1-43.9 2.1-61-.1-3.9-.5-15.4-1.4-25.6-1.9-17.1-1-20.1-.9-42.4 1.5-15.2 1.6-33.9 2.9-51 3.3-16.5.5-28.1 1.2-29.8 1.9-1.6.7-4.1 1.2-5.7 1.2-5.9 0-8.1 2.8-3.8 5.1 2.1 1.1 5.5 1 23.8-1.1 4.1-.5 15.6-1.6 25.5-2.4s25.7-2.2 35-3.2c21.8-2.2 62.1-2.5 75.5-.5 11.2 1.7 33.1 1.7 52 .1 7.4-.6 20.9-1.6 30-2.1s19.7-1.4 23.5-1.9c5.9-.9 95.8-2.7 105-2.1 11 .7 43.1.7 59.5 0 12-.5 23.4-.5 29.5.2 18.1 1.7 48.5 2.9 81.5 3 37.7.1 36 .2 36-1 0-.5-5.5-.9-12.2-.9-24.9-.1-61.8-1.5-61.8-2.3 0-.4 1.7-1.1 3.8-1.4 11.3-1.9 1.7-2.2-57.8-1.8-36 .2-79.2-.1-96-.6-28.9-.9-76-3.6-78.8-4.6-2.3-.8-.3-2.3 4.8-3.6 3.6-.9 5-1.7 4.8-2.8-.3-1.6-3.3-2.4-5.3-1.6M1627 36.1c-6.3.5-19.1 1.3-28.5 1.9-36.5 2.2-64.1 4-90 6-29.9 2.3-74.2 2.8-91 1.1-5.5-.6-21-1.1-34.5-1.1s-34.2-.6-46-1.2c-11.8-.7-36.8-1.2-55.5-1.3-18.7 0-45-.7-58.4-1.4-15-.8-34.9-1.1-52-.7-20.7.4-114.4 1.8-121.6 1.8-.5 0-8.5-.2-17.7-.5-15.3-.3-16.8-.2-18.3 1.5-1.3 1.6-2.8 1.9-9.8 1.6-5-.2-8-.7-7.7-1.3s1.7-.9 3.3-.7c1.5.2 2.7-.2 2.7-.8 0-1.6-49-.7-77.5 1.3-23 1.6-66.1 1.7-114.2.3-29.2-.9-29.2-.9-30.2 1.7-.9 2.4-1.4 2.6-5.8 2.2-2.6-.2-6-.4-7.5-.4-1.9-.1-2.8-.6-2.8-1.7 0-1.3-.6-1.5-3.2-.9-4.1 1-16 .9-21.1 0-2.9-.6-4.2-.4-5.7 1-1.7 1.5-2.4 1.6-5 .5-2.4-1-6.5-1.1-17.8-.4-18 1.1-42.6 1.2-54.7.1-20.8-1.7-30.8-2-30.1-.8.4.6 1.6 1.1 2.6 1.1 1.9 0 3.6 1.7 2.7 2.7-.5.4-6.6.9-17 1.2-1.8.1-2.6.5-2.1 1.2.3.6 2 .8 3.8.5 6.6-1.1 126.1-2.4 291.1-3.1 62.9-.2 90.8-.7 121.5-2.1 12.1-.5 125.3-1.9 150.5-1.8 56.2.2 125.8 1.3 137.5 2.3 6.9.5 29.8 1.3 51 1.6 24 .4 43.4 1.2 51.5 2.1 18.7 2.2 52.6 1.1 118.5-3.6 7.4-.5 22.1-1.4 32.5-2 10.5-.6 24.9-1.6 32-2.1 42.5-3.1 49.9-3.3 71.5-2 11.8.7 34.8 1.9 51 2.6 16.2.8 36.5 2.2 45 3.1 11.9 1.3 27.7 1.7 68.2 1.9 29 .2 53.9.6 55.5.9 1.5.3 13.4.8 26.3 1.2 12.9.3 23.8.8 24.2 1 2.7 1.7 74.1-.2 127.3-3.3 17.1-1 63.3-.7 102 .7 45.3 1.6 80.9 1.3 109-.9 15.1-1.1 9.4-1.1 80-1 50.9 0 60.2.2 61.6 1.5 1.9 1.7 4.7 1.8 12.3.3 7.4-1.5 7.3-3.9-.2-5.5-2.9-.7-5.9-1.7-6.7-2.4-1.2-1-2.8-1-7.8 0-4.5.9-22.8 1.3-66.7 1.5-35.8.2-67.1.8-76.7 1.5-16 1.2-83.6 1-159.7-.6-18.7-.4-35.7-.2-45 .5-51.3 3.8-133.6 4.7-177.6 1.9-8-.5-36.5-1-63.5-1.2-38.6-.3-51.7-.7-61.5-2-6.9-.9-25.5-2.3-41.5-3.1-15.9-.8-37.5-1.9-48-2.5-21.6-1.1-37.8-1.1-54.5.1"/></svg>